<?xml version="1.0" encoding="UTF-8"?>
<svg id="Layer_1" xmlns="http://www.w3.org/2000/svg" version="1.1" viewBox="0 0 792 612">
  <!-- Generator: Adobe Illustrator 29.2.1, SVG Export Plug-In . SVG Version: 2.1.0 Build 116)  -->
  <defs>
    <style>
      .st0 {
        fill: #831849;
      }
    </style>
  </defs>
  <path class="st0" d="M765.44,377.75c-5.98,0-11.61,3.02-21.84,8.49-16.5,8.84-41.43,22.19-69,22.19s-52.21-12.51-68.65-20.79c-5.91-2.98-10.43-5.25-14.37-6.62-2.11-1.21-4.63-1.91-7.39-1.91-5.98,0-11.61,3.02-21.84,8.49-16.5,8.84-41.43,22.19-69,22.19s-52.21-12.51-68.65-20.79c-5.31-2.67-9.5-4.78-13.16-6.18-1.94-1.07-4.21-1.7-6.68-1.78-.73-.09-1.46-.13-2.18-.13-3.43,0-6.49,1.05-8.88,2.83-3.15,1.41-6.78,3.35-11.3,5.77-16.5,8.84-41.43,22.19-69,22.19s-52.21-12.51-68.65-20.79c-10.02-5.05-16.07-8.09-22.02-8.09-2.29,0-4.4.48-6.27,1.31-4.08,1.34-8.75,3.84-15.31,7.35-16.5,8.84-41.43,22.19-69,22.19s-52.21-12.51-68.65-20.79c-10.02-5.05-16.07-8.09-22.02-8.09-7.99,0-14.02,5.66-14.02,13.17,0,8.89,10.58,27.25,30.81,45.14,22.78,20.14,49.01,31.23,73.88,31.23s51.19-11.47,74.02-32.29c5.87-5.36,11.77-11.66,16.81-18.06,4.49,5.54,10.01,11.37,16.55,17.15,22.78,20.14,49.01,31.23,73.88,31.23s51.19-11.47,74.02-32.29c5.6-5.11,11.22-11.07,16.09-17.15,4.36,5.29,9.66,10.82,15.86,16.3,22.78,20.14,49.01,31.23,73.88,31.23s51.19-11.47,74.02-32.29c5.78-5.27,11.58-11.46,16.57-17.75,4.53,5.63,10.14,11.57,16.79,17.45,22.78,20.14,49.01,31.23,73.88,31.23s51.19-11.47,74.02-32.29c15.24-13.91,30.68-34.16,30.68-45.97,0-7.46-5.95-13.08-13.85-13.08Z"/>
</svg>