<svg width="800" height="800" viewBox="0 0 800 800" fill="none" xmlns="http://www.w3.org/2000/svg">
<path d="M800 349.277C800 253.245 722.23 175.427 626.15 175.427C607.762 175.427 590.334 179.036 573.812 184.245C573.356 88.5267 495.853 11.0688 399.977 11.0688C304.164 11.0688 226.55 88.5267 226.189 184.245C209.669 179.036 192.239 175.427 173.852 175.427C77.7719 175.427 0 253.245 0 349.277C0 426.216 50.2672 490.65 119.583 513.527C98.8109 542.205 86.3391 577.052 86.3391 615.066C86.3391 711.097 164.109 788.931 260.173 788.931C317.767 788.931 368.333 760.739 399.978 717.609C431.67 760.739 482.236 788.931 539.767 788.931C635.894 788.931 713.617 711.099 713.617 615.066C713.617 577.052 701.128 542.205 680.42 513.527C749.733 490.652 800 426.217 800 349.277ZM399.977 527.239C350.022 527.239 309.466 486.745 309.466 436.791C309.466 386.82 350.022 346.327 399.977 346.327C449.977 346.327 490.486 386.82 490.486 436.791C490.488 486.745 449.978 527.239 399.977 527.239Z" fill="#830A48"/>
</svg>
