<?xml version="1.0" encoding="UTF-8"?>
<svg id="Layer_1" xmlns="http://www.w3.org/2000/svg" version="1.1" viewBox="0 0 800 800">
  <!-- Generator: Adobe Illustrator 29.5.0, SVG Export Plug-In . SVG Version: 2.1.0 Build 137)  -->
  <defs>
    <style>
      .st0 {
        fill: none;
        stroke: #830948;
        stroke-linecap: round;
        stroke-linejoin: round;
        stroke-width: 69px;
      }

      .st1 {
        fill: #6f7380;
      }
    </style>
  </defs>
  <path class="st1" d="M667.07,233.33H132.93c-17.35,0-31.42-14.92-31.42-33.33s14.07-33.33,31.42-33.33h534.13c17.35,0,31.42,14.92,31.42,33.33s-14.07,33.33-31.42,33.33Z"/>
  <path class="st1" d="M667.07,433.33H132.93c-17.35,0-31.42-14.92-31.42-33.33s14.07-33.33,31.42-33.33h534.13c17.35,0,31.42,14.92,31.42,33.33s-14.07,33.33-31.42,33.33Z"/>
  <path class="st1" d="M667.07,633.33H132.93c-17.35,0-31.42-14.92-31.42-33.33s14.07-33.33,31.42-33.33h534.13c17.35,0,31.42,14.92,31.42,33.33s-14.07,33.33-31.42,33.33Z"/>
  <g id="Hamburguer">
    <g>
      <line class="st0" x1="716.1" y1="400" x2="83.9" y2="400"/>
      <line class="st0" x1="716.1" y1="200" x2="83.9" y2="200"/>
      <line class="st0" x1="716.1" y1="600" x2="83.9" y2="600"/>
    </g>
  </g>
</svg>